<svg version="1.1" xmlns="http://www.w3.org/2000/svg" viewBox="-3408.2068084340412 -1075.2000610351563 7454.031011162313 2482.176171875"><desc>Created with Snap</desc><defs></defs><g><g><g transform="matrix(1.024,0,0,-1.024,0,0)"><path d="M341 701Q403 701 445 685Q488 669 532 633L480 572Q417 623 347 623Q261 623 208 557Q156 491 156 345Q156 203 208 135Q260 68 346 68Q390 68 423 83Q456 98 493 125L540 65Q508 32 458 10Q408 -12 343 -12Q259 -12 193 29Q128 71 91 151Q55 232 55 345Q55 458 93 538Q131 619 196 660Q261 701 341 701ZM853 539Q964 539 1025 465Q1087 391 1087 264Q1087 182 1059 119Q1031 57 978 22Q925 -12 852 -12Q741 -12 679 62Q617 136 617 263Q617 345 645 407Q673 470 726 504Q779 539 853 539ZM853 465Q716 465 716 263Q716 62 852 62Q988 62 988 264Q988 465 853 465ZM1437 539Q1548 539 1609 465Q1671 391 1671 264Q1671 182 1643 119Q1615 57 1562 22Q1509 -12 1436 -12Q1325 -12 1263 62Q1201 136 1201 263Q1201 345 1229 407Q1257 470 1310 504Q1363 539 1437 539ZM1437 465Q1300 465 1300 263Q1300 62 1436 62Q1572 62 1572 264Q1572 465 1437 465ZM1928 -12Q1877 -12 1847 18Q1818 49 1818 104L1818 739L1910 750L1910 106Q1910 84 1917 74Q1925 64 1943 64Q1962 64 1977 70L2001 6Q1968 -12 1928 -12Z" fill="#00203f" style=""></path></g></g><g transform="matrix(1,0,0,1,-40.96,1087.4881)"><g transform="matrix(1.024,0,0,-1.024,0,0)"><path d="M343 539Q415 539 455 496Q496 453 496 378L496 0L404 0L404 365Q404 421 383 444Q362 467 321 467Q279 467 247 443Q215 419 187 374L187 0L95 0L95 527L174 527L182 449Q210 491 251 515Q293 539 343 539ZM1079 279Q1079 256 1077 232L741 232Q747 145 785 104Q823 63 883 63Q921 63 953 74Q985 85 1020 109L1060 54Q976 -12 876 -12Q766 -12 704 60Q643 132 643 258Q643 340 669 403Q696 467 745 503Q795 539 862 539Q967 539 1023 470Q1079 401 1079 279ZM988 300L988 306Q988 384 957 425Q926 466 864 466Q751 466 741 300L988 300ZM1457 85L1492 24Q1440 -12 1374 -12Q1307 -12 1269 26Q1232 65 1232 138L1232 456L1140 456L1140 527L1232 527L1232 646L1324 657L1324 527L1449 527L1439 456L1324 456L1324 142Q1324 101 1338 82Q1353 64 1387 64Q1418 64 1457 85ZM2101 527L2189 527L2069 0L1944 0L1852 444L1757 0L1635 0L1512 527L1604 527L1699 64L1803 527L1906 527L2005 64L2101 527ZM2502 539Q2613 539 2674 465Q2736 391 2736 264Q2736 182 2708 119Q2680 57 2627 22Q2574 -12 2501 -12Q2390 -12 2328 62Q2266 136 2266 263Q2266 345 2294 407Q2322 470 2375 504Q2428 539 2502 539ZM2502 465Q2365 465 2365 263Q2365 62 2501 62Q2637 62 2637 264Q2637 465 2502 465ZM3117 539Q3145 539 3169 533L3152 443Q3128 449 3106 449Q3057 449 3027 413Q2997 377 2980 301L2980 0L2888 0L2888 527L2967 527L2976 420Q2997 479 3033 509Q3069 539 3117 539ZM3274 739L3366 750L3366 0L3274 0L3274 739ZM3566 527L3669 527L3475 294L3691 0L3581 0L3372 288L3566 527Z" fill="#00203f" style=""></path></g></g><g transform="matrix(2.5582,0,0,2.5582,-3245.0849,1068.3408)"><g transform="matrix(1.024,0,0,-1.024,0,0)"><path d="M341 701Q403 701 445 685Q488 669 532 633L480 572Q417 623 347 623Q261 623 208 557Q156 491 156 345Q156 203 208 135Q260 68 346 68Q390 68 423 83Q456 98 493 125L540 65Q508 32 458 10Q408 -12 343 -12Q259 -12 193 29Q128 71 91 151Q55 232 55 345Q55 458 93 538Q131 619 196 660Q261 701 341 701ZM1143 689L1143 0L1016 0L736 585Q742 516 745 457Q749 399 749 316L749 0L660 0L660 689L784 689L1067 103Q1064 129 1059 194Q1054 259 1054 313L1054 689L1143 689Z" fill="#00203f" style=""></path></g></g></g></svg>